<?xml version="1.0" encoding="iso-8859-1"?>
<!-- Uploaded to: SVG Repo, www.svgrepo.com, Generator: SVG Repo Mixer Tools -->
<svg fill="#000000" height="800px" width="800px" version="1.1" id="Layer_1" xmlns="http://www.w3.org/2000/svg" xmlns:xlink="http://www.w3.org/1999/xlink" 
	 viewBox="0 0 355.267 355.267" xml:space="preserve">
<g>
	<g>
		<path d="M147.658,183.818C146.619,184.32,146.056,184.596,147.658,183.818L147.658,183.818z"/>
		<path d="M150.08,182.641c-0.151,0.071-0.385,0.187-0.726,0.351c-0.025,0.012-0.048,0.026-0.073,0.038
			C149.64,182.856,149.901,182.728,150.08,182.641z"/>
		<path d="M150.075,182.641C150.356,182.502,150.29,182.533,150.075,182.641L150.075,182.641z"/>
		<path d="M148.856,183.235c0.148-0.072,0.256-0.123,0.42-0.205c0.031-0.015,0.048-0.024,0.078-0.038
			c4.467-2.184,8.596-4.77,12.502-7.586l8.381,8.381l6.687,6.687l19.302-19.302l-6.63-6.63l-8.381-8.381
			c7.839-10.87,12.964-23.429,15.099-36.588h21.284v-27.3h-21.233c-2.135-13.235-7.378-25.672-15.201-36.531l0.809-0.809
			l14.259-14.259l-19.302-19.302l-15.012,15.012c-10.87-7.839-23.429-12.964-36.587-15.099V0H98.015v21.233
			c-13.23,2.135-25.672,7.378-36.531,15.201L46.42,21.371L27.118,40.673L42.13,55.685c-7.839,10.87-12.964,23.429-15.099,36.588
			H5.747v27.3H26.98c2.135,13.235,7.378,25.672,15.201,36.531l-15.063,15.063l19.302,19.302l14.305-14.305l0.707-0.707
			c10.87,7.839,23.429,12.964,36.588,15.099v21.284h27.3v-21.233c8.115-1.311,16.179-3.789,23.951-7.578
			C149.138,183.096,149,183.163,148.856,183.235z M127.383,138.143c-17.562,8.566-39.378,1.055-47.939-16.507
			c-1.326-2.719-1.992-4.086-2.289-4.695c0.394,0.804,1.326,2.714,2.289,4.695c-8.566-17.562-1.055-39.378,16.507-47.939
			c17.562-8.566,39.378-1.055,47.939,16.507C152.456,107.766,144.945,129.577,127.383,138.143z"/>
		<path d="M325.788,277.12c4.157-12.544,5.453-26.04,3.487-39.434l20.245-6.385l-8.207-26.04l-20.285,6.395
			c-6.205-12.37-15.017-22.569-25.436-30.31l9.825-18.872l-24.218-12.605l-9.82,18.867c-12.544-4.157-26.04-5.453-39.434-3.487
			l-6.385-20.244l-26.035,8.212l6.395,20.285c-12.37,6.211-22.569,15.017-30.31,25.436l-18.872-9.825l-12.605,24.218l18.867,9.82
			c-4.157,12.544-5.453,26.04-3.487,39.434l-20.245,6.385l8.207,26.035l19.297-6.083l0.993-0.312
			c6.211,12.37,15.017,22.569,25.436,30.31l-9.825,18.872l24.218,12.605l5.504-10.573l4.316-8.289
			c12.544,4.157,26.04,5.458,39.434,3.487l3.538,11.228l2.842,9.016l26.035-8.207l-2.821-8.945l-3.574-11.341
			c12.37-6.211,22.569-15.017,30.31-25.436l18.872,9.825l12.605-24.218l-12.995-6.764L325.788,277.12z M267.594,277.443
			c0.184-0.148,0.369-0.302,0.502-0.41C267.994,277.12,267.819,277.258,267.594,277.443z M267.041,277.893
			c-15.13,12.314-38.011,10.066-50.406-5.105c-12.324-15.114-10.061-38.006,5.084-50.391c15.14-12.308,38.001-10.107,50.417,5.079
			C284.506,242.57,282.181,265.523,267.041,277.893z"/>
	</g>
</g>
</svg>